<?xml version="1.0" standalone="no"?>
<!DOCTYPE svg PUBLIC "-//W3C//DTD SVG 20010904//EN"
 "http://www.w3.org/TR/2001/REC-SVG-20010904/DTD/svg10.dtd">
<svg version="1.0" xmlns="http://www.w3.org/2000/svg"
 width="260.000000pt" height="260.000000pt" viewBox="0 0 260.000000 260.000000"
 preserveAspectRatio="xMidYMid meet">
<metadata>
Created by potrace 1.11, written by Peter Selinger 2001-2013
</metadata>
<g transform="translate(0.000000,260.000000) scale(0.100000,-0.100000)"
fill="#000000" stroke="none">
<path d="M489 2329 c-1 -5 -2 -33 -3 -61 l-1 -53 76 -17 c94 -20 146 -45 173
-81 21 -28 21 -33 21 -844 l0 -815 -32 -28 c-40 -36 -104 -55 -210 -62 -18 -1
-34 -7 -34 -13 -4 -31 0 -107 5 -112 8 -8 1013 -8 1096 0 280 28 508 186 581
404 31 94 31 241 1 330 -48 139 -166 255 -322 319 -35 14 -71 28 -80 30 -8 2
-46 12 -84 22 l-69 18 44 13 c128 38 264 125 328 208 85 110 115 292 71 423
-55 164 -190 264 -425 316 -47 10 -1135 13 -1136 3z m994 -152 c70 -22 113
-55 151 -112 40 -61 58 -125 60 -213 6 -230 -90 -374 -276 -417 -54 -12 -179
-19 -294 -16 l-32 1 0 383 c0 257 4 384 11 389 22 13 330 2 380 -15z m0 -917
c201 -47 317 -193 318 -401 1 -210 -74 -365 -212 -434 -125 -64 -326 -65 -427
-3 -67 41 -67 41 -69 465 l-1 382 61 3 c119 6 278 0 330 -12z"/>
</g>
</svg>
