<?xml version="1.0" encoding="UTF-8" standalone="no"?>
<!-- Created with Inkscape (http://www.inkscape.org/) -->

<svg
   xmlns:dc="http://purl.org/dc/elements/1.1/"
   xmlns:cc="http://creativecommons.org/ns#"
   xmlns:rdf="http://www.w3.org/1999/02/22-rdf-syntax-ns#"
   xmlns:svg="http://www.w3.org/2000/svg"
   xmlns="http://www.w3.org/2000/svg"
   xmlns:sodipodi="http://sodipodi.sourceforge.net/DTD/sodipodi-0.dtd"
   xmlns:inkscape="http://www.inkscape.org/namespaces/inkscape"
   width="100"
   height="50.19846"
   id="svg2"
   version="1.1"
   inkscape:version="0.48.2 r9819"
   sodipodi:docname="facebook.svg">
  <defs
     id="defs4" />
  <sodipodi:namedview
     id="base"
     pagecolor="#ffffff"
     bordercolor="#666666"
     borderopacity="1.0"
     inkscape:pageopacity="0.0"
     inkscape:pageshadow="2"
     inkscape:zoom="8.6048716"
     inkscape:cx="2.234282"
     inkscape:cy="45.503058"
     inkscape:document-units="px"
     inkscape:current-layer="layer1"
     showgrid="false"
     inkscape:window-width="1024"
     inkscape:window-height="749"
     inkscape:window-x="-4"
     inkscape:window-y="-4"
     inkscape:window-maximized="1"
     fit-margin-top="0"
     fit-margin-left="0"
     fit-margin-right="0"
     fit-margin-bottom="0" />
  <metadata
     id="metadata7">
    <rdf:RDF>
      <cc:Work
         rdf:about="">
        <dc:format>image/svg+xml</dc:format>
        <dc:type
           rdf:resource="http://purl.org/dc/dcmitype/StillImage" />
        <dc:title />
      </cc:Work>
    </rdf:RDF>
  </metadata>
  <g
     inkscape:label="レイヤー 1"
     inkscape:groupmode="layer"
     id="layer1"
     transform="translate(-120.53262,-911.7707)">
    <g
       id="layer1-8"
       inkscape:label="レイヤー 1"
       transform="translate(-1.9155517,1.1425861)"
       style="fill:#0ba8df;fill-opacity:1">
      <rect
         style="fill:#0ba8df;fill-opacity:1;fill-rule:evenodd;stroke:none"
         id="rect4576"
         width="100"
         height="49.994919"
         x="122.44817"
         y="910.62811"
         rx="8.5965109"
         ry="7.5289884" />
    </g>
    <path
       id="rect2995"
       d="m 174.31263,944.74505 2.90336,-0.0236 c 1.59685,-0.0137 2.90336,-0.0489 2.90336,-0.0767 0,-0.0278 0.23368,-1.56377 0.5193,-3.41381 0.28561,-1.85003 0.5193,-3.42173 0.5193,-3.49052 0,-0.10152 -0.64867,-0.12392 -3.44626,-0.12392 l -3.44627,0 0.003,-2.38406 c 0.002,-2.60643 0.0852,-3.27699 0.5134,-4.12194 0.46917,-0.92587 1.33397,-1.54841 2.48733,-1.791 0.27518,-0.0579 1.34801,-0.10622 2.38406,-0.10622 l 1.88246,0 0,-3.01252 0,-3.01548 -0.25965,-0.0561 c -1.3947,-0.29543 -5.42177,-0.50453 -6.68304,-0.34816 -3.50448,0.43447 -5.89307,2.18007 -7.043,5.15169 -0.60897,1.57367 -0.66813,2.08538 -0.71699,6.07227 l -0.0443,3.60854 -3.13056,0.0266 -3.13055,0.0236 -0.0236,3.51707 -0.0266,3.51708 3.16596,0 3.16301,0 0.0628,17.27129 c 4.94561,-0.0307 2.63911,-0.0144 7.60771,-0.008 -0.18515,-4.25278 -0.059,-12.02684 -0.16425,-17.21629 z"
       style="fill:#f9f9f9;fill-opacity:1;fill-rule:evenodd;stroke:none"
       inkscape:connector-curvature="0"
       sodipodi:nodetypes="cccssssccsssccccsssccccccccc" />
  </g>
</svg>
