<?xml version="1.0" encoding="UTF-8" standalone="no"?>
<!-- Created with Inkscape (http://www.inkscape.org/) -->

<svg
   xmlns:dc="http://purl.org/dc/elements/1.1/"
   xmlns:cc="http://creativecommons.org/ns#"
   xmlns:rdf="http://www.w3.org/1999/02/22-rdf-syntax-ns#"
   xmlns:svg="http://www.w3.org/2000/svg"
   xmlns="http://www.w3.org/2000/svg"
   xmlns:sodipodi="http://sodipodi.sourceforge.net/DTD/sodipodi-0.dtd"
   xmlns:inkscape="http://www.inkscape.org/namespaces/inkscape"
   id="svg4559"
   version="1.1"
   inkscape:version="0.48.2 r9819"
   width="100"
   height="49.994919"
   sodipodi:docname="feedly.svg">
  <metadata
     id="metadata4565">
    <rdf:RDF>
      <cc:Work
         rdf:about="">
        <dc:format>image/svg+xml</dc:format>
        <dc:type
           rdf:resource="http://purl.org/dc/dcmitype/StillImage" />
        <dc:title />
      </cc:Work>
    </rdf:RDF>
  </metadata>
  <defs
     id="defs4563" />
  <sodipodi:namedview
     pagecolor="#ffffff"
     bordercolor="#666666"
     borderopacity="1"
     objecttolerance="10"
     gridtolerance="10"
     guidetolerance="10"
     inkscape:pageopacity="0"
     inkscape:pageshadow="2"
     inkscape:window-width="1024"
     inkscape:window-height="749"
     id="namedview4561"
     showgrid="false"
     inkscape:zoom="14.904478"
     inkscape:cx="18.461966"
     inkscape:cy="44.557247"
     inkscape:window-x="-4"
     inkscape:window-y="-4"
     inkscape:window-maximized="1"
     inkscape:current-layer="svg4559"
     fit-margin-top="0"
     fit-margin-left="0"
     fit-margin-right="0"
     fit-margin-bottom="0" />
  <g
     transform="translate(-122.44817,-910.62811)"
     id="layer1-7"
     inkscape:label="レイヤー 1"
     style="fill:#13b80d;fill-opacity:1">
    <rect
       style="fill:#13b80d;fill-opacity:1;fill-rule:evenodd;stroke:none"
       id="rect4576"
       width="100"
       height="49.994919"
       x="122.44817"
       y="910.62811"
       rx="8.5965109"
       ry="7.5289884" />
  </g>
  <path
     style="fill:#f2f2f2"
     d="m 45.747323,40.990083 c -0.783316,-0.05825 -1.49584,-0.333304 -2.115981,-0.816832 -0.414306,-0.323036 -10.169767,-10.108626 -10.390023,-10.42211 -0.31428,-0.447307 -0.562557,-1.024906 -0.666839,-1.551351 -0.06528,-0.329573 -0.05662,-1.215017 0.01489,-1.520933 0.126202,-0.539922 0.316973,-0.985094 0.606144,-1.414466 0.118728,-0.176293 1.768336,-1.844545 7.258622,-7.340659 4.725416,-4.730431 7.191572,-7.178217 7.363535,-7.308683 0.480935,-0.36488 1.063519,-0.6167688 1.682359,-0.7273928 0.432475,-0.07731 1.165115,-0.05105 1.587646,0.0569 0.520434,0.1329688 0.970254,0.3412288 1.371689,0.6350708 0.12491,0.09143 3.109558,3.053114 7.361842,7.305197 7.63519,7.63483 7.295049,7.282279 7.584379,7.861044 0.515322,1.030821 0.526775,2.357406 0.02937,3.402057 -0.307396,0.645589 -0.05659,0.380218 -5.575746,5.899569 -4.708857,4.709025 -5.105717,5.098193 -5.38834,5.283917 -0.475362,0.312385 -0.942238,0.503174 -1.515301,0.619227 -0.222752,0.04511 -0.688963,0.0509 -4.567521,0.05678 -2.375697,0.0036 -4.464023,-0.0042 -4.640725,-0.01735 z m 5.157842,-3.379068 c 0.100136,-0.02751 0.255393,-0.166135 0.877064,-0.783111 0.415464,-0.412327 0.781629,-0.800471 0.813699,-0.862543 0.0644,-0.124647 0.07546,-0.308548 0.02647,-0.440301 -0.03606,-0.097 -2.098686,-2.180121 -2.225237,-2.247348 -0.09738,-0.05173 -0.365777,-0.05758 -0.45979,-0.01002 -0.09457,0.04784 -2.175553,2.124438 -2.228159,2.223465 -0.05676,0.106855 -0.05579,0.339326 0.002,0.460961 0.02506,0.05281 0.385199,0.435448 0.80031,0.85031 0.566578,0.566238 0.784629,0.76494 0.874602,0.796992 0.150286,0.05353 1.333563,0.06258 1.519111,0.0116 z m -4.051774,-4.151708 c 0.134636,-0.06713 5.668753,-5.596778 5.742034,-5.737399 0.07194,-0.138056 0.07623,-0.357655 0.0096,-0.489421 -0.06899,-0.136334 -2.004906,-2.07693 -2.168743,-2.173988 -0.157337,-0.09321 -0.363404,-0.105299 -0.504463,-0.0296 -0.05019,0.02693 -1.503635,1.4632 -3.229876,3.191703 -3.111538,3.115614 -3.138797,3.143958 -3.159047,3.284939 -0.03877,0.269883 -0.0096,0.310931 0.803124,1.130033 0.412079,0.415317 0.797144,0.780877 0.8557,0.812354 0.09547,0.05132 0.18124,0.05737 0.830418,0.05858 0.603755,0.0011 0.740117,-0.0067 0.821304,-0.04719 z m -4.191679,-4.090942 c 0.105917,-0.02839 0.754918,-0.66554 5.011609,-4.920047 2.689465,-2.688083 4.910406,-4.930558 4.935426,-4.983277 0.05766,-0.121488 0.05859,-0.353994 0.0018,-0.460798 -0.05367,-0.101019 -2.134483,-2.176042 -2.231431,-2.225216 -0.09973,-0.05059 -0.348081,-0.04566 -0.450931,0.0089 -0.132843,0.07053 -10.437342,10.394031 -10.474323,10.49364 -0.04546,0.122445 -0.03924,0.315343 0.01377,0.427051 0.02506,0.05281 0.385199,0.435448 0.800309,0.85031 0.566579,0.566238 0.78463,0.76494 0.874602,0.796992 0.14845,0.05289 1.332082,0.06255 1.519112,0.0124 z"
     id="path4569"
     inkscape:connector-curvature="0" />
</svg>
