<?xml version="1.0" encoding="UTF-8" standalone="no"?>
<!-- Created with Inkscape (http://www.inkscape.org/) -->

<svg
   xmlns:dc="http://purl.org/dc/elements/1.1/"
   xmlns:cc="http://creativecommons.org/ns#"
   xmlns:rdf="http://www.w3.org/1999/02/22-rdf-syntax-ns#"
   xmlns:svg="http://www.w3.org/2000/svg"
   xmlns="http://www.w3.org/2000/svg"
   xmlns:sodipodi="http://sodipodi.sourceforge.net/DTD/sodipodi-0.dtd"
   xmlns:inkscape="http://www.inkscape.org/namespaces/inkscape"
   id="svg4207"
   version="1.1"
   inkscape:version="0.48.2 r9819"
   width="100"
   height="49.994919"
   sodipodi:docname="line.svg">
  <metadata
     id="metadata4213">
    <rdf:RDF>
      <cc:Work
         rdf:about="">
        <dc:format>image/svg+xml</dc:format>
        <dc:type
           rdf:resource="http://purl.org/dc/dcmitype/StillImage" />
        <dc:title />
      </cc:Work>
    </rdf:RDF>
  </metadata>
  <defs
     id="defs4211" />
  <sodipodi:namedview
     pagecolor="#ffffff"
     bordercolor="#666666"
     borderopacity="1"
     objecttolerance="10"
     gridtolerance="10"
     guidetolerance="10"
     inkscape:pageopacity="0"
     inkscape:pageshadow="2"
     inkscape:window-width="1024"
     inkscape:window-height="749"
     id="namedview4209"
     showgrid="false"
     inkscape:zoom="10.60909"
     inkscape:cx="66.382838"
     inkscape:cy="45.137386"
     inkscape:window-x="-4"
     inkscape:window-y="-4"
     inkscape:window-maximized="1"
     inkscape:current-layer="svg4207"
     fit-margin-top="0"
     fit-margin-left="0"
     fit-margin-right="0"
     fit-margin-bottom="0" />
  <g
     transform="translate(-122.44817,-910.62811)"
     id="layer1"
     inkscape:label="レイヤー 1"
     style="fill:#00b900;fill-opacity:1">
    <rect
       style="fill:#00b900;fill-opacity:1;fill-rule:evenodd;stroke:none"
       id="rect4576-7"
       width="100"
       height="49.994919"
       x="122.44817"
       y="910.62811"
       rx="8.5965109"
       ry="7.5289884" />
  </g>
  <path
     style="fill:#f2f2f2"
     d="m 50.912752,9.4107712 c -0.463519,0.0012 -0.920254,0.02427 -1.391417,0.05218 -4.972483,0.294572 -8.385164,1.6443158 -11.705294,4.6438528 -4.028538,3.639543 -5.459419,7.871284 -4.243821,12.557537 1.356903,5.230996 5.163328,8.623609 12.105326,10.766088 l 4.069894,1.252275 -0.104356,2.295838 c -0.0693,1.517649 0.121691,2.31323 0.57396,2.31323 1.122689,0 8.955143,-5.365623 12.314039,-8.435464 4.483463,-4.097633 6.137122,-7.158935 6.139626,-11.374833 0.0017,-2.794376 -0.294534,-3.859681 -1.687093,-6.122234 C 63.896131,12.342866 57.865538,9.3924912 50.912752,9.4107732 z m -5.113457,10.4878038 1.774057,0 0,8.765926 -1.774057,0 0,-8.765926 z m 3.478542,0 1.721879,0 3.582898,5.843951 0,-5.843951 1.634915,0 0,8.765926 -1.774057,0 -3.53072,-5.722202 0,5.722202 -1.634915,0 0,-8.765926 z m 8.818104,0 5.391741,0 0,1.47838 -3.617684,0 0,1.947984 3.287222,0 0,1.47838 -3.287222,0 0,2.382802 3.791611,0 0,1.47838 -5.565668,0 0,-8.765926 z m -19.671155,0.06957 1.756664,0 0.05218,6.713586 4.400356,0 -0.05218,1.982769 -6.15702,0 0,-8.696355 z"
     id="path4219"
     inkscape:connector-curvature="0" />
  <g
     style="font-size:22px;font-style:normal;font-variant:normal;font-weight:bold;font-stretch:normal;text-align:start;line-height:125%;letter-spacing:0px;word-spacing:0px;writing-mode:lr-tb;text-anchor:start;opacity:0.5;fill:#000000;fill-opacity:1;stroke:none;font-family:Sans;-inkscape-font-specification:Sans Bold"
     id="text4221"
     transform="translate(25.943576,-39.913593)" />
</svg>
