<?xml version="1.0" encoding="UTF-8" standalone="no"?>
<!-- Created with Inkscape (http://www.inkscape.org/) -->

<svg
   xmlns:dc="http://purl.org/dc/elements/1.1/"
   xmlns:cc="http://creativecommons.org/ns#"
   xmlns:rdf="http://www.w3.org/1999/02/22-rdf-syntax-ns#"
   xmlns:svg="http://www.w3.org/2000/svg"
   xmlns="http://www.w3.org/2000/svg"
   xmlns:sodipodi="http://sodipodi.sourceforge.net/DTD/sodipodi-0.dtd"
   xmlns:inkscape="http://www.inkscape.org/namespaces/inkscape"
   id="svg4116"
   version="1.1"
   inkscape:version="0.48.2 r9819"
   width="100"
   height="49.994919"
   sodipodi:docname="twitter.svg">
  <metadata
     id="metadata4122">
    <rdf:RDF>
      <cc:Work
         rdf:about="">
        <dc:format>image/svg+xml</dc:format>
        <dc:type
           rdf:resource="http://purl.org/dc/dcmitype/StillImage" />
        <dc:title />
      </cc:Work>
    </rdf:RDF>
  </metadata>
  <defs
     id="defs4120" />
  <sodipodi:namedview
     pagecolor="#ffffff"
     bordercolor="#666666"
     borderopacity="1"
     objecttolerance="10"
     gridtolerance="10"
     guidetolerance="10"
     inkscape:pageopacity="0"
     inkscape:pageshadow="2"
     inkscape:window-width="1024"
     inkscape:window-height="749"
     id="namedview4118"
     showgrid="false"
     inkscape:zoom="6.2851104"
     inkscape:cx="46.319083"
     inkscape:cy="26.358495"
     inkscape:window-x="-4"
     inkscape:window-y="-4"
     inkscape:window-maximized="1"
     inkscape:current-layer="svg4116"
     fit-margin-top="0"
     fit-margin-left="0"
     fit-margin-right="0"
     fit-margin-bottom="0" />
  <g
     transform="translate(-122.44817,-910.62811)"
     id="layer1"
     inkscape:label="レイヤー 1"
     style="fill:#1da1f2;fill-opacity:1">
    <rect
       style="fill:#1da1f2;fill-opacity:1;fill-rule:evenodd;stroke:none"
       id="rect4576-1"
       width="100"
       height="49.994919"
       x="122.44817"
       y="910.62811"
       rx="8.5965109"
       ry="7.5289884" />
  </g>
  <path
     style="fill:#f2f2f2"
     d="m 43.767868,37.643034 c -2.157079,-0.324208 -4.081341,-0.922058 -5.822717,-1.809063 -1.72156,-0.876914 -1.717034,-0.842795 -0.112504,-0.847933 2.657949,-0.0085 4.891671,-0.692939 7.155871,-2.192605 0.327003,-0.216586 0.59466,-0.42461 0.594794,-0.462274 1.25e-4,-0.03766 -0.376907,-0.133084 -0.837869,-0.212044 -1.856532,-0.31801 -3.72584,-1.662842 -4.532485,-3.260796 -0.214231,-0.42439 -0.389511,-0.815486 -0.389511,-0.869102 0,-0.05362 0.493053,-0.09749 1.095673,-0.09749 0.602619,0 1.20837,-0.04722 1.346111,-0.104929 0.208337,-0.08729 0.118377,-0.153233 -0.535106,-0.392258 -2.353999,-0.861023 -3.902362,-2.849424 -4.227895,-5.429448 l -0.08421,-0.667406 0.420091,0.217339 c 0.548242,0.28364 1.561708,0.550626 2.097257,0.5525 l 0.424971,0.0015 -0.568171,-0.433831 C 39.123416,21.124557 38.324286,19.97675 37.935221,18.968019 37.41298,17.613997 37.471696,15.599586 38.074232,14.198955 l 0.25265,-0.587303 1.406203,1.379935 c 3.130742,3.07226 6.892354,4.821663 11.258982,5.236184 l 0.587556,0.05577 -0.06864,-1.016864 c -0.21079,-3.122772 1.884521,-6.022257 4.844948,-6.704419 1.963518,-0.452448 4.224882,0.100452 5.691723,1.391617 l 0.535106,0.47102 0.721156,-0.187837 c 0.892366,-0.232433 2.242586,-0.75834 2.784365,-1.084506 0.515765,-0.310505 0.519548,-0.157815 0.01935,0.780663 -0.349984,0.656636 -1.149689,1.556733 -1.991555,2.241564 l -0.313049,0.254656 0.438269,-0.07189 c 0.662289,-0.10864 2.216591,-0.530544 2.702534,-0.733584 0.397855,-0.166234 0.421602,-0.163702 0.313176,0.0334 -0.248141,0.45108 -1.484948,1.788605 -2.233087,2.414934 l -0.782623,0.6552 0,1.210424 c 0,2.074983 -0.553137,4.618358 -1.470241,6.760304 -2.395921,5.595801 -6.951576,9.411765 -12.742197,10.673272 -0.838939,0.182767 -1.735058,0.256057 -3.506151,0.286757 -1.308546,0.02268 -2.548222,0.01583 -2.754834,-0.01522 z"
     id="path4128"
     inkscape:connector-curvature="0" />
</svg>
